              ***********************************************

                PublicHash - Largest Bittorrent Community
      
                          http://publichash.com/
    
              ***********************************************
General
Complete name : The Hangover Part 3 2013 TS Xvid Mp3-SUFFiCE.avi
Sources : A FRIEND
Format : AVI
Format/Info : Audio Video Interleave
File size : 1.22 GiB
Duration : 1h 34mn
Overall bit rate : 1 833 Kbps
Writing application : VirtualDubMod 1.5.10.2 (build 2540/release)
Writing library : VirtualDubMod build 2540/release

Video
ID : 0
Format : MPEG-4 Visual
Format profile : Advanced Simple@L5
Format settings, BVOP : 2
Format settings, QPel : No
Format settings, GMC : No warppoints
Format settings, Matrix : Default (H.263)
Muxing mode : Packed bitstream
Codec ID : XVID
Codec ID/Hint : XviD
Duration : 1h 34mn
Bit rate : 1 695 Kbps
Width : 720 pixels
Height : 274 pixels
Display aspect ratio : 2.628
Frame rate : 25.857 fps
Color space : YUV
Chroma subsampling : 4:2:0
Bit depth : 8 bits
Scan type : Progressive
Compression mode : Lossy
Bits/(Pixel*Frame) : 0.332
Stream size : 1.12 GiB (92%)
Writing library : XviD 64

Audio
ID : 1
Format : MPEG Audio
Format version : Version 1
Format profile : Layer 3
Codec ID : 55
Codec ID/Hint : MP3
Duration : 1h 34mn
Bit rate mode : Constant
Bit rate : 128 Kbps
Channel(s) : 2 channels
Sampling rate : 44.1 KHz
Compression mode : Lossy
Stream size : 86.9 MiB (7%)
Alignment : Split accross interleaves
Interleave, duration : 39 ms (1.00 video frame)
Interleave, preload duration : 500 ms
Writing library : LAME3.82
 
http://www.imdb.com/title/tt1951261/

Gallery: 
http://imgsure.com/?g=718935